<?xml version="1.0" standalone="no"?>
<!DOCTYPE svg PUBLIC "-//W3C//DTD SVG 20010904//EN"
 "http://www.w3.org/TR/2001/REC-SVG-20010904/DTD/svg10.dtd">
<svg version="1.0" xmlns="http://www.w3.org/2000/svg"
 width="512.000000pt" height="512.000000pt" viewBox="0 0 512.000000 512.000000"
 preserveAspectRatio="xMidYMid meet">
<metadata>
Created by potrace 1.11, written by Peter Selinger 2001-2013
</metadata>
<g transform="translate(0.000000,512.000000) scale(0.100000,-0.100000)"
fill="#000000" stroke="none">
<path d="M2370 5114 c-517 -49 -953 -214 -1357 -515 -126 -93 -398 -366 -492
-491 -212 -286 -348 -567 -436 -902 -155 -589 -90 -1235 179 -1776 127 -256
263 -446 465 -653 351 -360 751 -588 1233 -706 218 -53 328 -66 593 -66 322 0
525 31 805 125 401 134 720 331 1016 627 283 282 481 607 615 1004 95 286 136
569 126 879 -9 267 -44 469 -122 705 -139 421 -335 736 -652 1046 -328 321
-693 527 -1137 644 -200 53 -369 75 -596 79 -107 2 -215 2 -240 0z m306 -662
c22 -11 105 -78 184 -147 80 -70 200 -176 267 -235 l123 -108 181 55 c136 42
183 53 189 43 4 -6 24 -70 45 -141 21 -72 41 -132 45 -134 3 -2 37 3 74 12 37
8 70 12 73 9 3 -3 16 -67 29 -142 13 -75 26 -139 29 -143 4 -3 39 -6 78 -6
l72 0 6 -110 c4 -60 7 -124 8 -141 1 -26 11 -39 54 -72 94 -71 87 14 87 -1027
0 -769 -2 -920 -14 -943 -18 -35 -64 -78 -96 -90 -16 -6 -614 -11 -1545 -13
-1210 -3 -1527 -1 -1556 9 -41 14 -93 65 -108 105 -8 19 -11 319 -11 933 0
977 -2 934 54 1001 22 27 25 35 16 58 -6 15 -9 29 -8 31 2 1 38 14 80 27 73
23 83 31 274 198 109 96 232 203 273 240 42 36 227 197 411 358 422 369 411
361 473 383 65 23 156 19 213 -10z"/>
<path d="M3520 3980 c-14 -5 -254 -78 -535 -164 -280 -85 -724 -220 -985 -300
-261 -79 -583 -177 -715 -216 -132 -40 -243 -75 -247 -78 -4 -4 3 -41 16 -82
l22 -75 109 -67 c60 -38 114 -68 121 -68 6 0 28 18 47 40 48 52 71 133 64 216
-5 53 -4 63 11 67 9 2 155 48 323 101 168 53 309 96 313 96 4 0 -16 -28 -43
-62 -112 -138 -156 -275 -148 -458 8 -178 54 -287 167 -393 76 -72 153 -115
276 -156 87 -28 88 -29 59 -40 -70 -26 -70 -24 -13 -58 l53 -32 285 88 c268
83 292 92 398 156 114 69 136 88 66 59 -69 -30 -237 -85 -242 -80 -2 3 18 36
46 73 67 92 89 139 119 252 36 137 36 287 1 387 -64 183 -212 315 -435 389
-61 21 -88 34 -76 37 10 3 155 45 323 92 168 48 312 89 321 92 12 3 25 -9 43
-40 66 -113 187 -178 293 -159 35 6 56 6 60 0 16 -27 151 -522 142 -525 -36
-13 -109 -75 -136 -115 -30 -44 -63 -150 -51 -163 3 -3 29 9 57 26 45 28 50
34 45 59 -4 18 0 33 10 44 9 8 16 23 16 31 0 18 25 22 35 6 3 -5 15 -10 26
-10 10 0 19 -7 19 -15 0 -20 4 -19 56 11 31 18 43 31 40 43 -3 9 -66 214 -139
456 -74 242 -141 462 -149 490 -14 52 -26 60 -68 45z m-60 -130 c0 -5 9 -10
20 -10 30 0 26 -38 -5 -46 -34 -8 -32 -21 4 -21 53 0 81 -44 46 -73 -8 -7 -15
-18 -15 -26 0 -19 -17 -26 -37 -15 -10 5 -26 12 -36 15 -27 9 -15 29 24 40
l34 10 -38 4 c-46 4 -78 43 -59 71 7 9 16 26 22 39 9 22 40 31 40 12z m-1009
-437 l15 -48 91 0 c50 0 94 -3 98 -7 4 -3 9 -42 12 -85 l6 -79 -39 -11 c-22
-7 -77 -19 -123 -27 -46 -9 -90 -21 -98 -27 -16 -14 -17 -45 -1 -55 7 -5 73
-8 148 -9 152 -1 183 -11 218 -67 35 -57 55 -134 48 -182 -9 -55 -56 -128
-102 -157 -24 -15 -33 -26 -29 -37 3 -9 9 -35 12 -58 l6 -43 -59 -16 c-33 -9
-67 -19 -76 -21 -13 -4 -21 8 -34 51 l-18 57 -92 -7 c-127 -10 -134 -7 -134
61 0 85 4 88 135 114 149 29 193 61 148 106 -15 14 -31 16 -123 10 -132 -8
-172 3 -225 58 -70 72 -88 190 -41 270 19 32 83 89 113 101 1 1 -4 25 -12 55
-8 30 -11 58 -7 62 12 12 93 36 123 37 22 1 28 -5 40 -46z m-1206 -243 c3 -5
15 -10 26 -10 30 0 22 -44 -8 -48 -36 -5 -27 -22 12 -22 28 0 38 -5 47 -25 9
-20 8 -28 -4 -42 -8 -10 -18 -26 -21 -35 -7 -20 -22 -23 -32 -8 -3 6 -17 10
-31 10 -19 0 -25 5 -22 17 2 10 12 19 23 21 36 7 41 22 7 22 -40 0 -73 42 -54
69 7 9 16 26 22 39 10 23 25 29 35 12z"/>
<path d="M3758 3723 c-10 -2 -18 -9 -18 -15 0 -14 169 -558 181 -583 12 -26
14 -37 -58 318 -60 299 -58 293 -105 280z"/>
<path d="M3935 3428 c2 -7 15 -76 30 -153 32 -171 43 -215 55 -215 5 0 7 15 5
33 -3 17 -7 103 -11 190 l-6 157 -39 0 c-26 0 -37 -4 -34 -12z"/>
<path d="M3735 2900 c-13 -6 -15 -9 -5 -9 8 0 22 4 30 9 18 12 2 12 -25 0z"/>
<path d="M2602 2236 l-104 -33 26 -16 c14 -9 30 -17 36 -17 7 0 48 23 93 50
45 28 75 50 67 49 -8 -1 -62 -16 -118 -33z"/>
</g>
</svg>
